<?xml version="1.0" encoding="UTF-8"?>
<svg width="29px" height="29px" viewBox="0 0 29 29" version="1.1" xmlns="http://www.w3.org/2000/svg" xmlns:xlink="http://www.w3.org/1999/xlink">
    <!-- Generator: sketchtool 49 (51002) - http://www.bohemiancoding.com/sketch -->
    <title>45B9FED0-AAC8-4D48-BCB4-B8873C76CDDB</title>
    <desc>Created with sketchtool.</desc>
    <defs></defs>
    <g id="Article-Creator-Adding-Section-1200-Option-3" stroke="none" stroke-width="1" fill="none" fill-rule="evenodd">
        <g id="Icons" transform="translate(-561.000000, -261.000000)">
            <g id="Trash" transform="translate(561.000000, 261.000000)">
                <circle id="Oval" fill="#FFFFFF" cx="14.5" cy="14.5" r="14.5"></circle>
                <g stroke-width="1" transform="translate(10.000000, 8.000000)" fill="#A0A0A0">
                    <path d="M3,2 L3.38603796,0.841886117 C3.45409498,0.637715047 3.64516441,0.5 3.86037961,0.5 L5.13962039,0.5 C5.35483559,0.5 5.54590502,0.637715047 5.61396204,0.841886117 L6,2 L8.5,2 C8.77614237,2 9,2.22385763 9,2.5 C9,2.77614237 8.77614237,3 8.5,3 L0.5,3 C0.223857625,3 3.38176876e-17,2.77614237 0,2.5 C-3.38176876e-17,2.22385763 0.223857625,2 0.5,2 L3,2 Z" id="Combined-Shape"></path>
                    <path d="M8.20801109,4 C8.63998081,4 8.96402473,4.33831649 9,4.74435638 L9,12.2556436 C9,12.6616334 8.63998081,13 8.24398636,13 L0.756013644,13 C0.32399062,13 0,12.6616835 0,12.2556436 L0,4.74435638 C0,4.33831649 0.360019187,4 0.756013644,4 L8.20801109,4 Z M2,5 C1.58578644,5 1.25,5.33578644 1.25,5.75 L1.25,11.25 C1.25,11.6642136 1.58578644,12 2,12 C2.41421356,12 2.75,11.6642136 2.75,11.25 L2.75,5.75 C2.75,5.33578644 2.41421356,5 2,5 Z M4.5,5 C4.08578644,5 3.75,5.33578644 3.75,5.75 L3.75,11.25 C3.75,11.6642136 4.08578644,12 4.5,12 C4.91421356,12 5.25,11.6642136 5.25,11.25 L5.25,5.75 C5.25,5.33578644 4.91421356,5 4.5,5 Z M7,5 C6.58578644,5 6.25,5.33578644 6.25,5.75 L6.25,11.25 C6.25,11.6642136 6.58578644,12 7,12 C7.41421356,12 7.75,11.6642136 7.75,11.25 L7.75,5.75 C7.75,5.33578644 7.41421356,5 7,5 Z" id="Shape"></path>
                </g>
            </g>
        </g>
    </g>
</svg>